HIERARCHY
ROOT Hips
{
	OFFSET 0.000000 0.000000 0.000000 
	CHANNELS 6 Xposition Yposition Zposition Yrotation Zrotation Xrotation 
	JOINT Lumbar
	{
		OFFSET 0.000000 0.000000 0.000000 
		CHANNELS 3 Zrotation Xrotation Yrotation
		JOINT Neck
		{
			OFFSET 0.000000 0.445665 0.000000 
			CHANNELS 3 Zrotation Xrotation Yrotation
			End Site
			{
				OFFSET 0.000000 0.227535 0.000000 
			}
		}
		JOINT RightShoulder
		{
			OFFSET 0.019635 0.377685 0.194865 
			CHANNELS 3 Zrotation Xrotation Yrotation
			JOINT RightElbow
			{
				OFFSET 0.000000 -0.243375 0.000000 
				CHANNELS 2 Zrotation Yrotation
				JOINT RightWrist
				{
					OFFSET 0.000000 -0.264825 0.000000 
					CHANNELS 2 Zrotation Xrotation
					End Site
					{
						OFFSET 0.006600 -0.176220 0.000990 
					}
				}
			}
		}
		JOINT LeftShoulder
		{
			OFFSET 0.019635 0.377685 -0.194865 
			CHANNELS 3 Zrotation Xrotation Yrotation
			JOINT LeftElbow
			{
				OFFSET 0.000000 -0.243375 0.000000 
				CHANNELS 2 Zrotation Yrotation
				JOINT LeftWrist
				{
					OFFSET 0.000000 -0.264825 0.000000 
					CHANNELS 2 Zrotation Xrotation
					End Site
					{
						OFFSET 0.006600 -0.176220 -0.000990 
					}
				}
			}
		}
	}
	JOINT RightHip
	{
		OFFSET 0.052140 -0.069960 0.075570 
		CHANNELS 3 Zrotation Xrotation Yrotation
		JOINT RightKnee
		{
			OFFSET 0.000000 -0.402270 0.000000 
			CHANNELS 1 Zrotation
			JOINT RightAnkle
			{
				OFFSET 0.000000 -0.404085 0.000000 
				CHANNELS 3 Zrotation Xrotation Yrotation
				End Site
				{
					OFFSET 0.204105 -0.089430 0.008415 
				}
			}
		}
	}
	JOINT LeftHip
	{
		OFFSET 0.052140 -0.069960 -0.075570 
		CHANNELS 3 Zrotation Xrotation Yrotation
		JOINT LeftKnee
		{
			OFFSET 0.000000 -0.402270 0.000000 
			CHANNELS 1 Zrotation
			JOINT LeftAnkle
			{
				OFFSET 0.000000 -0.404085 0.000000 
				CHANNELS 3 Zrotation Xrotation Yrotation
				End Site
				{
					OFFSET 0.204105 -0.089430 -0.008415 
				}
			}
		}
	}
}
MOTION
Frames: 11
Frame Time: 0.02
0.02495 -0.0329 0.06083 27.13246 -15.26073 -2.62284 41.88153 1.56037 -13.93386 -26.63993 -5.48234 -0.83075 19.72596 -66.31319 22.99543 106.86559 94.95259 16.51756 -1.18549 -41.55507 28.41751 10.95617 78.91356 -94.49434 6.93014 -1.05103 39.48835 -4.10756 -12.80205 -41.18671 -6.49861 -4.25798 -2.88382 28.92472 13.62937 -3.5374 -34.83654 -10.13735 4.3108 3.08647
0.02636 -0.0298 0.06422 27.31327 -15.41368 -2.61917 41.80563 1.57317 -13.90564 -26.51404 -5.31946 -0.83075 20.16816 -65.665 22.25812 107.03008 95.87969 16.44038 -0.97201 -41.54377 27.93567 10.92236 77.86588 -94.65996 7.09143 -1.04022 38.96732 -3.77663 -13.106 -39.84457 -6.53763 -4.24416 -2.87886 29.08924 13.6489 -4.19688 -34.37293 -10.51119 4.28976 3.09711
0.02748 -0.027 0.06756 27.55014 -15.51228 -2.62921 41.64089 1.59096 -13.87739 -26.40011 -5.11396 -0.83075 20.26161 -64.9485 21.15431 107.27456 97.68778 16.63689 -0.6297 -41.51115 27.45403 10.86686 76.82904 -94.92422 7.32724 -1.0274 38.39385 -3.49282 -13.50861 -38.51806 -6.57406 -4.2212 -2.869 29.28412 13.62862 -4.9744 -34.01737 -10.8999 4.27274 3.11205
0.0287 -0.02408 0.07092 27.76019 -15.6389 -2.63406 41.51738 1.60742 -13.84642 -26.28442 -4.92103 -0.83075 20.49994 -64.22099 20.18672 107.47408 98.93209 16.62596 -0.36912 -41.4891 26.96876 10.8156 75.77796 -95.0994 7.5003 -1.01281 37.8545 -3.18163 -13.84159 -37.19093 -6.61359 -4.20498 -2.86284 29.47694 13.63552 -5.65777 -33.62466 -11.2766 4.25244 3.12373
0.03005 -0.02108 0.07432 27.97828 -15.75174 -2.63481 41.39022 1.61972 -13.82712 -26.1547 -4.75481 -0.83075 20.78609 -63.67051 19.33733 107.70989 100.81377 16.95265 -0.01697 -41.45912 26.49862 10.78716 74.76608 -95.45841 7.79426 -1.00925 37.27245 -2.89339 -14.27305 -35.83629 -6.64563 -4.17879 -2.85097 29.62324 13.60876 -6.50446 -33.18449 -11.67591 4.23656 3.13995
0.03107 -0.01833 0.07761 28.19154 -15.88072 -2.647 41.2501 1.64216 -13.78224 -26.05577 -4.52472 -0.83075 20.89552 -62.73354 18.16058 107.88863 101.60787 16.6512 0.17813 -41.44232 25.99639 10.70641 73.67481 -95.46316 7.85712 -0.9825 36.76674 -2.57063 -14.52751 -34.54237 -6.69222 -4.17044 -2.84942 29.87312 13.6395 -7.04197 -32.86843 -12.03122 4.21347 3.14832
0.03126 -0.01622 0.08063 28.38385 -16.0621 -2.6905 41.08945 1.68875 -13.68168 -26.0474 -4.11432 -0.83075 20.57726 -60.76965 16.14719 107.89699 99.05257 14.48723 -0.10009 -41.46615 25.41268 10.48586 72.36739 -94.41649 7.23209 -0.89047 36.48332 -2.12591 -14.23927 -33.41744 -6.78213 -4.21855 -2.88041 30.39368 13.85557 -6.69587 -32.85902 -12.26434 4.16449 3.13098
0.03113 -0.01436 0.08351 28.56805 -16.2624 -2.74449 40.91989 1.74578 -13.55274 -26.06787 -3.6436 -0.83075 20.09885 -58.41694 13.82476 107.84446 95.40287 11.69557 -0.53837 -41.50511 24.79576 10.21352 70.97971 -93.01966 6.37815 -0.77561 36.27879 -1.64775 -13.77491 -32.35274 -6.88627 -4.28398 -2.92143 31.01823 14.12741 -6.03544 -32.97173 -12.45173 4.10901 3.1061
0.03113 -0.01238 0.08643 28.75157 -16.4577 -2.79166 40.75865 1.79986 -13.42718 -26.06949 -3.21039 -0.83075 19.71129 -56.22479 11.65639 107.81488 92.34525 9.23048 -0.89739 -41.53786 24.18887 9.96557 69.62386 -91.81407 5.64857 -0.67224 36.03878 -1.19491 -13.41203 -31.25652 -6.98219 -4.33804 -2.95592 31.60006 14.36212 -5.52114 -33.03469 -12.6586 4.06021 3.08689
0.03117 -0.01041 0.08947 28.95512 -16.63645 -2.84793 40.57656 1.8469 -13.34186 -26.09592 -2.73428 -0.83075 19.23535 -54.09087 9.40735 107.80612 88.91627 6.59431 -1.28006 -41.56538 23.60175 9.71372 68.28393 -90.47305 4.83318 -0.5637 35.79495 -0.70097 -12.9646 -30.17617 -7.08537 -4.40626 -2.99842 32.16455 14.64481 -4.99849 -33.07847 -12.87302 3.99662 3.05888
0.03106 -0.00849 0.09222 29.11478 -16.85421 -2.88758 40.43661 1.91056 -13.16587 -26.07723 -2.33221 -0.83075 18.90976 -51.75366 7.27062 107.74087 85.99136 4.1695 -1.65252 -41.60966 22.9676 9.45741 66.89671 -89.33387 4.14445 -0.46101 35.57902 -0.28407 -12.64689 -29.0796 -7.17693 -4.4496 -3.02687 32.78856 14.84185 -4.41515 -33.1882 -13.05873 3.96121 3.04666
